<svg xmlns="http://www.w3.org/2000/svg" viewBox="0 0 251.29 251.28" width="251.29" height="251.28"><path d="M57.57 164.36a32.09 32.09 0 0 0-7.59.87.26.26 0 0 1 0 .11.78.78 0 0 0 0 .13c0 .28.26.59.77.95a13.61 13.61 0 0 0 2 1c.79.33 1.67.65 2.62 1s1.89.59 2.77.83 1.68.44 2.38.59a10.46 10.46 0 0 0 1.44.21c.59 0 1.31 0 2.13-.11a13.91 13.91 0 0 0 2.49-.41 11.34 11.34 0 0 0 2.35-.86 4.36 4.36 0 0 0 1.66-1.44 27.56 27.56 0 0 0-6.31-2.17 30.77 30.77 0 0 0-6.71-.7z"/><path d="M125.39 0a125.64 125.64 0 1 0 125.9 125.39A125.65 125.65 0 0 0 125.39 0zm82.08 69.16v.31a7.13 7.13 0 0 1-.09 1.37c-.13.66-.19 1.36-.32 2.09s-.21 1.41-.34 2.06-.18 1.08-.23 1.33a9.42 9.42 0 0 0-.89 1.8c-.23.64-.44 1.28-.63 2s-.38 1.31-.57 2a15.77 15.77 0 0 1-.72 1.92A28.41 28.41 0 0 1 202 87a20.41 20.41 0 0 0-1.56 3l-19.68 27.44a2.08 2.08 0 0 1-.23.54 1.73 1.73 0 0 1-.26.28c-.08.08-.2.16-.31.28a2.58 2.58 0 0 0-.41.49l-1.55 2.25c-.64.89-1.33 1.84-2 2.86s-1.44 2.1-2.16 3.2-1.37 2.18-1.94 3.23a24 24 0 0 0-1.37 2.93 6.94 6.94 0 0 0-.52 2.3c0 .29-.22.52-.2.72s.19.43.19.69a.33.33 0 0 0-.27.37c0 .25.11.38.27.4v10.06a2.64 2.64 0 0 1-.24 1c-.16.36-.2.74-.36 1.15s-.48.8-.6 1.2-.43.78-.43 1.11v1.64a.41.41 0 0 1 0 .43c-.15.23-.2.49-.38.77s-.55.56-.71.8-.51.38-.51.41v.4c0 .08.69.21.79.4s.85.33.85.41v2.8a23 23 0 0 1-.59 3.48c-.18 1.16-.55 2.31-.76 3.46s-.47 2.31-.65 3.47a22.63 22.63 0 0 0-.32 3.48c0 2.08.09 4.16.3 6.23a41.88 41.88 0 0 0 1.09 6.07 31.61 31.61 0 0 0 2.12 5.69 23 23 0 0 0 3.38 5.15 5.55 5.55 0 0 1-1.24.82 9.46 9.46 0 0 1-1.66.68 12.28 12.28 0 0 1-1.7.46 5.26 5.26 0 0 1-1.43.09l-.46-.1-1-.24-1.18-.26-1-.22c-.23 0-.48-.08-.74-.14a4.16 4.16 0 0 1-.74-.28 2.77 2.77 0 0 1-.6-.47 1.31 1.31 0 0 1-.33-.71 28 28 0 0 0 .1-4c-.05-1.4-.15-2.8-.28-4.21s-.34-2.82-.52-4.23-.38-2.74-.53-4a2.78 2.78 0 0 1-.2-.62 1.45 1.45 0 0 0-.25-.59c.07-1.1.1-2.3.13-3.61s0-2.64-.14-4a25.52 25.52 0 0 0-.6-3.93 11.51 11.51 0 0 0-1.4-3.38 3.41 3.41 0 0 0-1.44 1.79 22.64 22.64 0 0 0-.76 2.69c-.21.95-.2 1.9-.42 2.86s-.92 1.72-.92 2.31v7.47c0 2.8-.2 5.54-.08 8.2s.2 5.35.57 8.11a2.3 2.3 0 0 0 .41.32c.26.18.51.38.8.59a5.28 5.28 0 0 1 .79.69.91.91 0 0 1 .34.62c0 .23-.27.49-.81.79a13.55 13.55 0 0 1-1.82.85 21.21 21.21 0 0 1-2 .83 12.28 12.28 0 0 1-1.27.41h-.18l-4.7-2.55a.45.45 0 0 1-.22-.47v-.59a22.37 22.37 0 0 1 0-3 20.19 20.19 0 0 0 .1-3 26 26 0 0 0-.31-3.75c-.17-1.23-.39-2.46-.59-3.67s-.4-2.46-.59-3.71a31.89 31.89 0 0 1-.26-3.85c0-1.21 0-2.31.11-3.27s.19-1.89.34-2.77.34-1.82.51-2.77.41-2 .65-3.17a1.36 1.36 0 0 0-.05-.7 4.44 4.44 0 0 1-.11-.71 7.88 7.88 0 0 0-1.86.22c-.6.15-1.21.31-1.83.51l-1.9.61a14.58 14.58 0 0 1-1.88.51l-1.35.2-1.06.14c-.35 0-.66-.13-1-.11s-.67-.17-1.05-.17h-1.8c-1.79 0-3.52.12-5.2 0s-3.37-.11-5.18-.11c-.77 0-1.57.07-2.41.1a4.08 4.08 0 0 0-2.32.85c.05 1.74.05 3.45 0 5.14s-.09 3.37-.15 5-.19 3.36-.25 5.05-.14 3.4-.14 5.13v5.03c0 .55.66 1.1 1.12 1.66s.94 1.11 1.38 1.68a15.37 15.37 0 0 1 1.19 1.74 3.33 3.33 0 0 1 .52 1.77v.37a8.9 8.9 0 0 1-4 .4c.08.48 0 .73-.23.79a3.53 3.53 0 0 1-.7.07h-2a10.1 10.1 0 0 1-2.23-.23 4.26 4.26 0 0 1-1.8-.83 2.19 2.19 0 0 1-.76-1.84 7 7 0 0 1 .13-1.27c.1-.43.2-.86.31-1.28s.23-.86.31-1.3a6.22 6.22 0 0 0 .13-1.38 27.12 27.12 0 0 0-.27-3.78c-.19-1.21-.42-2.39-.68-3.56s-.53-2.61-.81-3.77a27.27 27.27 0 0 1-.72-3.92h-.42c-.21 0-.38.74-.51.91s-.26.48-.39.67-.23.42-.31.53c-.49.74-1 1.53-1.54 2.25a26.64 26.64 0 0 0-1.43 2.25 15.5 15.5 0 0 0-1.06 2.4 8.38 8.38 0 0 0-.43 2.66 4.34 4.34 0 0 0 .34 1.61 14.77 14.77 0 0 0 .72 1.49c.26.44.51.84.72 1.15a1.61 1.61 0 0 1 .33.57.85.85 0 0 1-.41.72 2.93 2.93 0 0 1-1 .46 10.26 10.26 0 0 1-1.32.27c-.45 0-.9.1-1.32.1h-1.23a10.8 10.8 0 0 1-1.7-.13 2.12 2.12 0 0 1-1.07-.38 2.23 2.23 0 0 1-.69-.86 9.44 9.44 0 0 1-.54-1.6c-.17-.54-.33-1.07-.51-1.59a5 5 0 0 1-.29-1.64 3.42 3.42 0 0 1 .41-1.48c.28-.5.59-1.05.93-1.57l1-1.56a7 7 0 0 0 .8-1.43q1.25-2.9 2.41-5.84c.8-1.95 1.6-3.88 2.43-5.84a4.27 4.27 0 0 1 .46-.73c.18-.23.36-.48.52-.71a3.66 3.66 0 0 0 .43-.74 1.76 1.76 0 0 0 .18-.82c0-.36-.12-.57-.33-.62a3 3 0 0 0-.64-.08 1.89 1.89 0 0 0-.38 0h-.25l-8.82 2.56a2.77 2.77 0 0 1-1.3.53l-1.75.39a6.66 6.66 0 0 0-1.56.58 1.12 1.12 0 0 0-.68 1.05 1.48 1.48 0 0 0 .26.88 2.85 2.85 0 0 0 .64.66l.82.54a2.87 2.87 0 0 1 .74.6l-.39.43c-.38-.26-.8-.54-1.26-.83a12.46 12.46 0 0 0-1.4-.82 8.6 8.6 0 0 0-1.49-.6 4.54 4.54 0 0 0-1.49-.23 14.12 14.12 0 0 0-3.75.52c-1.28.33-2.59.71-3.92 1.12s-2.67.81-4 1.14a17.31 17.31 0 0 1-4.17.51 21.17 21.17 0 0 1-3.42-.38c-1.48-.25-3.08-.62-4.84-1.09s-3.54-1.06-5.36-1.73a37.91 37.91 0 0 1-4.94-2.22A15.55 15.55 0 0 1 45 170a4.17 4.17 0 0 1-1.43-2.93 4.4 4.4 0 0 1 1.11-3.24 6.25 6.25 0 0 1 2.71-1.62 13.86 13.86 0 0 1 3.44-.16c1.22-.05 2.33.33 3.31.32H58a2.48 2.48 0 0 1 1.26-.25c.69.08 1.46 0 2.31.14s1.7.18 2.52.31 1.5.17 2 .25a7.57 7.57 0 0 1 1.92.53l1.77.84a18 18 0 0 0 1.81.74 5.64 5.64 0 0 0 2 .32 8.64 8.64 0 0 0 3.93-1 29.78 29.78 0 0 0 4.08-2.54c1.34-1 2.63-2 3.84-3.09s2.29-2 3.23-2.69a17.23 17.23 0 0 1 1.83-1.23c.62-.35 1.23-.71 1.83-1.09a15.91 15.91 0 0 0 1.67-1.29 7.91 7.91 0 0 0 1.47-1.69 38.2 38.2 0 0 0 2.58-4.43 30.38 30.38 0 0 1 2.66-4.41 7.22 7.22 0 0 1 1.29-1.3 14.53 14.53 0 0 1 1.52-1c.53-.3 1.07-.6 1.61-.88a14.85 14.85 0 0 0 1.6-.9c1.21-.81 2.41-1.68 3.55-2.61s2.29-1.91 3.41-2.9 2.22-2 3.32-3 2.22-1.94 3.4-2.84a21.71 21.71 0 0 1 3.73-2.19c1.31-.59 2.6-1.21 3.88-1.84.84-.38 1.66-.81 2.46-1.27s1.62-.89 2.44-1.3a27.13 27.13 0 0 1 2.53-1.13 12.39 12.39 0 0 1 2.64-.75l22.13-3.27a10.54 10.54 0 0 0 3.46-1.12 19.1 19.1 0 0 0 3.32-2.17 30.87 30.87 0 0 0 3.14-2.86c1-1.05 2-2.13 2.88-3.21s1.8-2.16 2.63-3.19 1.59-2 2.29-2.77l7.6-8.9a2.07 2.07 0 0 0 .33-.26c.18-.17.35-.35.53-.55s.36-.36.5-.52.25-.25.28-.26l2-3.24a1.56 1.56 0 0 1 .25-.16l.37-.23c.13-.08.26-.17.38-.23a.81.81 0 0 0 .21-.2 3 3 0 0 0 .41-.39c.2-.22.31-.33.36-.4.38-.49.78-1 1.22-1.69s.92-1.28 1.36-2 .88-1.31 1.29-1.94a18.9 18.9 0 0 0 .95-1.7 13.05 13.05 0 0 0 .85-2c.23-.69.45-1.4.68-2.1s.49-1.45.75-2.17 1-1.46 1-2.18v-6a5.18 5.18 0 0 0-1.08-3.05 11.63 11.63 0 0 0-2.61-2.58 13 13 0 0 0-3.33-1.78 9 9 0 0 0-3.17-.66 24.14 24.14 0 0 0-5.75.68 12.15 12.15 0 0 0-5.06 2.61 13.52 13.52 0 0 0-1.42 1.42c-.51.59-1 1.21-1.59 1.85l-1.73 2a20.83 20.83 0 0 1-1.82 1.82 10.53 10.53 0 0 1-1.8 1.3 3.48 3.48 0 0 1-1.75.51 1.58 1.58 0 0 1-1.15-.47 1.55 1.55 0 0 1-.51-1.12v-.42c0-.08.07-.25.12-.48s.1-.49.15-.75.11-.53.14-.77a2.52 2.52 0 0 0 .07-.46 5.28 5.28 0 0 0-.24-1.66 13.84 13.84 0 0 0-.59-1.34c-.23-.41-.41-.8-.6-1.18a3.07 3.07 0 0 1-.24-1.23 1.07 1.07 0 0 0 .83-.26 2.45 2.45 0 0 0 .44-.62c.13-.25.28-.49.43-.74a1.62 1.62 0 0 1 .78-.59h.54c.34 0 .53-.12.86-.12s.63-.1.9-.1h.5a1.1 1.1 0 0 0 .94-.36 3.44 3.44 0 0 1 .7-.66.58.58 0 0 1 .23 0l.15.05a1 1 0 0 1 .25.37 1.66 1.66 0 0 0 .18.41.45.45 0 0 1 .39-.38l.62-.36 1.1-.64 1.34-.8 1.33-.79 1.08-.64a3.39 3.39 0 0 0 .55-.4 18.63 18.63 0 0 1 2.08-1.25 7.64 7.64 0 0 1 1.75-.62 9.43 9.43 0 0 1 1.9-.22h6.38a6.19 6.19 0 0 0 1.46.52c.51.13 1 .23 1.51.31l1.54.3a10 10 0 0 1 1.52.49 14.93 14.93 0 0 1 4.52 3 16.82 16.82 0 0 1 3.17 4.15 19.53 19.53 0 0 1 1.71 5 24.31 24.31 0 0 1 .49 5.39v2.31z"/></svg>