<svg xmlns="http://www.w3.org/2000/svg" viewBox="0 0 256 256" width="256" height="256"><path d="M131.72 151.71q-.42 0-.42.6h-.08c-.32 0-.48.16-.48.5s.16.59.48.59.42-.19.42-.59.05 0 .08 0a.44.44 0 0 0 .51-.5c0-.4-.16-.6-.51-.6zm1.46-.8a2.38 2.38 0 0 0-.86.8h.3a2.54 2.54 0 0 0 2-1.12h-.3a2.11 2.11 0 0 0-1.14.32zm3.06-2.58c-.28 0-.41.19-.41.55a.32.32 0 0 0-.14 0c-.28 0-.43.18-.43.57h-.12c-.31 0-.48.2-.48.6s.17.54.48.54.47-.18.47-.54a.11.11 0 0 0 .08 0c.32 0 .47-.2.47-.6a.11.11 0 0 0 .08 0c.35 0 .52-.19.52-.57s-.17-.55-.52-.55zm23.3-5.93a14.35 14.35 0 0 1-1.28 1.41 1.81 1.81 0 0 0 .82 1.06 3 3 0 0 0 1.14.19 2.18 2.18 0 0 0 1.4-.48 4.72 4.72 0 0 0 1.07-1.23 12 12 0 0 0 .76-1.47c.22-.52.38-1.18.5-1.18h-3.43c-.2 0-.52 1.08-.98 1.7z"/><path d="M127.16 1a127.5 127.5 0 1 0 127.51 127.51A127.5 127.5 0 0 0 127.16 1zm95.61 75.64a5 5 0 0 1-1.56.38 13.46 13.46 0 0 1-1.66.08h-1.1l-.95.07a43.15 43.15 0 0 0-5.22 1.24 15.83 15.83 0 0 0-3.66 1.6 9.29 9.29 0 0 0-2.5 2.18 14.3 14.3 0 0 0-1.76 2.94 37.26 37.26 0 0 0-1.49 3.91c-.49 1.48-1.05 3.16-1.67 5.07q-.6 1.8-1.2 3.45c-.39 1.08-.81 2.16-1.26 3.19s-.91 2.08-1.45 3.14-1.11 2.13-1.76 3.24a32.94 32.94 0 0 1-2.68 4.1c-.94 1.24-1.93 2.47-3 3.67s-2.06 2.38-3.11 3.58-2.09 2.47-3.12 3.84a10.36 10.36 0 0 0-1.38 2.68c-.3.88-.62 1.74-1 2.56a8.25 8.25 0 0 1-1.35 2.21 5.6 5.6 0 0 1-2.49 1.6 8.61 8.61 0 0 1-1.35.56c-.63.22-1.31.45-2 .68s-1.38.44-2 .63-1.1.34-1.37.39a2.89 2.89 0 0 1 .17 2 2 2 0 0 1-.86.93c-.39.21-.8.41-1.22.6a1.67 1.67 0 0 0-.9 1l-2.26 6.75a2.65 2.65 0 0 1-1.05 1.52 5.88 5.88 0 0 1-1.78.86 10.89 10.89 0 0 1-2 .18 14.14 14.14 0 0 1-1.86-.13h-.85c-.48 0-.86.17-1.13.05s-.41-.33-.41-.85a.56.56 0 0 1 .11-.37 2.26 2.26 0 0 1 .23-.29 3 3 0 0 0 .24-.28.76.76 0 0 0 .1-.4.26.26 0 0 0 0-.11.42.42 0 0 1 0-.18 23.13 23.13 0 0 0-3.44 1.67c-1.11.64-2.24 1.34-3.37 2.06s-2.23 1.44-3.35 2.18-2.23 1.38-3.37 2a3.48 3.48 0 0 1-.87.44 10.59 10.59 0 0 0-1.16.59 4.38 4.38 0 0 0-1 .78 1.5 1.5 0 0 0-.43 1 2.35 2.35 0 0 0 0 .33 1.34 1.34 0 0 1 0 .23l1.79 1.63c.62.58 1.27 1.17 2 1.73a25.24 25.24 0 0 0 2 1.61 13.67 13.67 0 0 0 2.12 1.25 8.68 8.68 0 0 0 1.81.68c.63.19 1.28.35 1.95.54s1.28.39 1.89.64a7.36 7.36 0 0 1 1.68.92 8.15 8.15 0 0 1 1.35 1.41l1.11 1.52c.35.5.73 1 1.13 1.46a6.39 6.39 0 0 0 1.48 1.28 6.54 6.54 0 0 0 1.68.6 15.63 15.63 0 0 1 2.08.65 6.56 6.56 0 0 1 1.8 1 2.13 2.13 0 0 1 .76 1.72.91.91 0 0 1-.06.28.78.78 0 0 0-.05.23l-5.64 1.15a3.55 3.55 0 0 0-1.1.38 2.31 2.31 0 0 1-1.16.27h-.57c-.18-.12-.56-.34-1.13-.64s-1.13-.64-1.75-1-1.18-.7-1.69-1a8.38 8.38 0 0 1-1.05-.75s-.1-.09-.2-.22l-.32-.5-.34-.55c-.1-.18-.2-.33-.25-.45l-2.27-4.52q-.34-.12-1.14-.45c-.55-.21-1.15-.46-1.82-.75s-1.38-.6-2.14-.93-1.47-.66-2.15-1-1.28-.58-1.79-.83a11.85 11.85 0 0 1-1.12-.6 25.24 25.24 0 0 1-2.79-1.58 16.46 16.46 0 0 1-2.63-2.15 13.2 13.2 0 0 1-2-2.69 8 8 0 0 1-1-3.15l-.56.24a2.51 2.51 0 0 0-.6.33 8 8 0 0 1-.87.65c-.46.33-1 .73-1.71 1.18s-1.38.93-2.13 1.41l-2.13 1.37-1.76 1.08a9.4 9.4 0 0 1-1 .53l-6 3.54a23 23 0 0 0-4.56 3.43 17.23 17.23 0 0 0-3.63 4.46c-.89 1.71-.73 3.92-2.39 6.63v.22a2.77 2.77 0 0 1 0 .41 4.51 4.51 0 0 0 0 .52v.43a9.88 9.88 0 0 0 1.16 4.46 7.88 7.88 0 0 0 2.13 2.58 8.51 8.51 0 0 0 2.64 1.41c.91.32 1.81.63 2.57 1a5.5 5.5 0 0 1 2 1 5.12 5.12 0 0 1 .81 2h-13.41s-.08-.25-.18-.4-.23-.11-.37-.19a2.26 2.26 0 0 0-.5-.15 3.42 3.42 0 0 1-.61-.33 3 3 0 0 1-1.27-1.54 8.7 8.7 0 0 1-.46-2.17 15.4 15.4 0 0 1 .2-2.34c0-.78.28-1.46.28-2.06v-1.46a6.77 6.77 0 0 1 .27-1.76c.21-.82.33-1.72.58-2.71s.47-2 .77-3.16.56-2.17.8-3.16.49-1.9.67-2.68.34-1.38.43-1.76a15.15 15.15 0 0 1 .66-2 13.46 13.46 0 0 1 1-1.9 14.38 14.38 0 0 0 4.53-2.58 28.11 28.11 0 0 0 3.26-3.29c1-1.15 2-2.29 2.91-3.44a14.86 14.86 0 0 1 3.44-3.09 6.69 6.69 0 0 1 1.45-.72c.61-.23 1.31-.52 2.06-.8s1.53-.63 2.33-1a16.79 16.79 0 0 0 2.16-1.13 8.58 8.58 0 0 0 1.58-1.33 2.37 2.37 0 0 0 .61-1.57v-1.33a1.88 1.88 0 0 0-.64-1.21l-.76-.28c-.37-.15-.77-.34-1.2-.54l-1.18-.56a7.52 7.52 0 0 0-.78-.33 10.19 10.19 0 0 1-2-1.22c-.84-.61-1.73-1.25-2.64-1.89s-1.76-1.05-2.56-1.57a3.16 3.16 0 0 0-1.75-.56h-7.9c-6 0-11.9-.1-17.73.1s-11.72.2-17.72.2c-4.41 0-8.72-.15-12.91-.37a110.21 110.21 0 0 1-12.42-1.37 86.54 86.54 0 0 1-12.06-2.94 70.06 70.06 0 0 1-11.82-5.06l-1.43-.72a13.51 13.51 0 0 1-1.6-1 5.73 5.73 0 0 1-1.3-1.3 2.57 2.57 0 0 1-.53-1.58 7.09 7.09 0 0 1 2.11.4c.8.29 1.61.58 2.41.93s1.53.67 2.2 1 1.16.51 1.51.63c1.45.56 3 1.13 4.68 1.66s3.35 1 5.07 1.45a50.52 50.52 0 0 0 5.1.92 33.62 33.62 0 0 0 4.87.35h25.36a9 9 0 0 0 1.24-.11l2.56-.35c1-.13 2.14-.31 3.37-.53l3.64-.61c1.22-.2 2.37-.39 3.45-.61s2-.41 2.67-.58l6.92-1.35q3.67-.69 7.39-1.61c2.48-.62 4.9-1.31 7.28-2.11a49.22 49.22 0 0 0 6.64-2.81l3.84-1.78c1.25-.58 2.51-1.13 3.81-1.62s2.61-.94 4-1.33a33.06 33.06 0 0 1 4.22-.91 8.9 8.9 0 0 1 1-.12l1.79-.11 1.78-.15a4.41 4.41 0 0 0 1.05-.19 14.62 14.62 0 0 0 1.9-.33l3.36-.73c1.28-.28 2.64-.58 4.07-.92l4.06-.91c1.26-.28 2.38-.92 3.32-1.12s1.58-.73 1.9-.73H162c2.73 0 5.39.49 8 .72s5.18.51 7.86.51a10.07 10.07 0 0 0 5.06-1.25 18.7 18.7 0 0 0 4.52-3.51 32.44 32.44 0 0 0 3.91-5 63.24 63.24 0 0 0 3.26-5.67c1-1.92 1.85-3.79 2.56-5.6s1.31-3.43 1.78-4.82c.43-1.2.8-2.36 1.13-3.48s.67-2.17 1-3.14a16.77 16.77 0 0 1 1.21-2.63 7.55 7.55 0 0 1 1.78-2 7.94 7.94 0 0 1 2.63-1.61 12.65 12.65 0 0 1 3.81-.79h3.13c.76 1.67 1.76.92 3 1.32a37.39 37.39 0 0 1 3.56 1.53 14.87 14.87 0 0 1 3 1.83 2.83 2.83 0 0 1 1.25 2.18 2.09 2.09 0 0 1-.45 1.42 3.09 3.09 0 0 1-1.23.9z"/></svg>