<svg xmlns="http://www.w3.org/2000/svg" viewBox="0 0 256 256" width="256" height="256"><path d="M127.51 1A127.5 127.5 0 1 0 255 128.51 127.5 127.5 0 0 0 127.51 1zm110.24 116.35c-1.41.08-2.79.08-4.12 0s-2.43-.08-3.26-.08c-3.06 0-6.12-.15-9.16-.45s-6.09-.63-9.13-1-6.07-.67-9.12-1-6.12-.45-9.21-.45a136.52 136.52 0 0 0-16.33 1 74.5 74.5 0 0 0-15.87 3.71l-30.62 11.06a2.49 2.49 0 0 0-1.21 1.56 19.27 19.27 0 0 0-.81 2.75c-.24 1-.44 1.94-.64 2.86a7.09 7.09 0 0 1-.61 2 3.11 3.11 0 0 0 1.38 1.33 22.45 22.45 0 0 0 2.44 1.17l2.9 1.18a18.56 18.56 0 0 1 2.77 1.44 8.54 8.54 0 0 1 2.1 1.88 3.85 3.85 0 0 1 .81 2.46 1.64 1.64 0 0 1-.48 1.22 5 5 0 0 1-1.21.88 11.89 11.89 0 0 1-1.61.73 9.4 9.4 0 0 0-1.62.8 4.71 4.71 0 0 0-1.23 1.05 2.39 2.39 0 0 0-.48 1.51 3.76 3.76 0 0 0 .8 2.55 8 8 0 0 0 1.93 1.58c.74.46 1.54.89 2.37 1.33a7.44 7.44 0 0 1 2.17 1.73 17.82 17.82 0 0 1 2 3.45 24.57 24.57 0 0 1 1.28 3.7 35.15 35.15 0 0 1 .76 3.86c.18 1.31.11 2.64.26 4l1.32 1.32v7.18a3.86 3.86 0 0 1 .86 0c.28 0 .71.1 1 .18l1 .22a1.45 1.45 0 0 1 .57.23c.05.45.08.74.08.85a6.69 6.69 0 0 1-.47 2.21 3.22 3.22 0 0 1-.63.94 1 1 0 0 1-.88.31h-5.2c-.2 0-.52-.52-1-.82s-1-.55-1.5-.86-1.05-.47-1.56-.78-.9-.87-1.17-.87h-6.17a4.74 4.74 0 0 1 .65-3 4.29 4.29 0 0 1 1.65-1.55 6.86 6.86 0 0 1 2.13-.65c.75-.1 1.46-.22 2.13-.35a5.55 5.55 0 0 0 1.63-.61 1.48 1.48 0 0 0 .64-1.37v-.64c-.18-.41-.46-1-.84-1.78s-.8-1.58-1.28-2.42-1-1.68-1.53-2.48a9.71 9.71 0 0 0-1.57-1.82 8 8 0 0 0-1.29-.79l-1.87-1a17.8 17.8 0 0 1-1.76-1.07 2.13 2.13 0 0 1-1-1.09 23.48 23.48 0 0 1-.94-2.95 20.28 20.28 0 0 0-1.08-3.22 7.84 7.84 0 0 0-1.73-2.6 4 4 0 0 0-2.89-1.05 23.49 23.49 0 0 0-6 .8 26.46 26.46 0 0 0-10.75 5.72 22.91 22.91 0 0 0-3.94 4.59.41.41 0 0 1-.35.19h-.16a.14.14 0 0 1-.1-.13c-.07 0-.13-.15-.2-.33s-.1-.4-.17-.63-.11-.43-.16-.62a.66.66 0 0 0-.15-.33.65.65 0 0 0-.32-.09 1.41 1.41 0 0 0-1.06.49 6.08 6.08 0 0 0-.88 1.16c-.28.45-.57.9-.83 1.33a3.77 3.77 0 0 1-.85 1 4.45 4.45 0 0 1-.65-1.65 15.08 15.08 0 0 1-.08-1.64 10.23 10.23 0 0 1 .4-2.91c.26-.94.56-1.87.89-2.82a26.77 26.77 0 0 0 .92-2.56 19.06 19.06 0 0 0 .4-2.77h-4.89c0-1.67.21-1.82.64-2.38a5.8 5.8 0 0 1 1.62-1.58 7.27 7.27 0 0 1 2.13-.92 10.73 10.73 0 0 1 2.12-.29 20.38 20.38 0 0 1 3 .2c1 .16 2 .3 3 .47s1.92.33 2.89.46a21.73 21.73 0 0 0 2.93.2h2.31a2.63 2.63 0 0 0-1.7-1.37 15.46 15.46 0 0 0-2.54-.44l-2.7-.2c-.9-.05-1.61.15-2.19-.2l-3.91-2.2h-.28a13.56 13.56 0 0 0-3.18 0 13.22 13.22 0 0 1-3.16.16 7.56 7.56 0 0 1-3-.69 28.76 28.76 0 0 1-2.64-1.38c-.85-.49-1.78-1-2.63-1.36a5.15 5.15 0 0 0-2.9-.62v6.07a12.84 12.84 0 0 0 1.6-.15 5.7 5.7 0 0 0 1-.34 5.83 5.83 0 0 0 .88-.51c.32-.2.38-.42.89-.65.12-.07.61-.13.61-.17v2.78l2-.68c0 .12.2.28.21.51s.13.39.13.5a5.59 5.59 0 0 1-1.32 3.9 23.1 23.1 0 0 1-3.27 2.91 22.59 22.59 0 0 0-4.61-1.27c-1.52-.25-3.14-.46-4.8-.66v-7.82c0 .08-1 .25-1.74.53a17 17 0 0 0-2.06 1 12.69 12.69 0 0 0-1.92 1.2c-.46.41-.93.81-.93 1.18v6.92a10.07 10.07 0 0 0 3-.29 12.37 12.37 0 0 0 1.83-.59 12.07 12.07 0 0 0 1.24-.6 2.56 2.56 0 0 1 1.22-.29.48.48 0 0 1 .15 0h.21c0 .12.13.35.28.73s.3.8.47 1.25.28.9.38 1.3a4 4 0 0 1 .19 1 5.19 5.19 0 0 1-.4 1.91 7.29 7.29 0 0 1-1.1 1.84 5.74 5.74 0 0 1-1.57 1.34 3.34 3.34 0 0 1-1.83.55 3.26 3.26 0 0 1-.58-.06 3.62 3.62 0 0 0-.45-.05c-.75-.15-1.74-.32-3-.49a28.88 28.88 0 0 1-3.66-.71 12 12 0 0 1-3.23-1.3 2.51 2.51 0 0 1-1.46-2.09v-11.73c0-.12.39-.38.89-.83s1.18-1 1.9-1.61 1.53-1.37 2.38-2.18a27 27 0 0 0 2.38-2.55 18.82 18.82 0 0 0 1.82-2.66 5.42 5.42 0 0 0 .74-2.59 3.88 3.88 0 0 0-1.18-2.78 12 12 0 0 0-2.81-2 24.46 24.46 0 0 0-3.26-1.43c-1.09-.36-1.94-.66-2.54-.9l-1.31-9.13c-.15-.83-.35-1.73-.62-2.71a12.17 12.17 0 0 0-1.11-2.76 7.3 7.3 0 0 0-1.82-2.17 4.09 4.09 0 0 0-2.66-.89 12.4 12.4 0 0 0-3.65.49 14.71 14.71 0 0 0-3.22 1.49c-.34.24-.88.57-1.65 1l-2.54 1.5c-1 .55-1.93 1.13-3 1.76s-2 1.2-3 1.75-1.79 1.23-2.54 1.66-1.32 1.12-1.65 1.12h-1c-.47 0-1-.2-1.73-.23a14.63 14.63 0 0 1-2.08-.38 3.41 3.41 0 0 1-1.28-.73c-.47-.32-.35-.81-.35-1.38v-1.88c0-.59-.22-.91.05-.93h1.57a1.15 1.15 0 0 1 0-.44c.06-.25.09-.51.15-.81s.13-.6.18-.87a.74.74 0 0 0 0-.49 2.4 2.4 0 0 0-.8-.84l-.89-.49a2.63 2.63 0 0 1-.7-.67 2.12 2.12 0 0 1-.28-1.25 3.17 3.17 0 0 1 .25-1.18 5 5 0 0 1 .68-1.16c.29-.37.25-.65.62-.88a3.37 3.37 0 0 1 .81-.34v.79c0 .49.42 1 .57 1.48a1.18 1.18 0 0 0 1.2.73 1.63 1.63 0 0 0 1.11-.49 5 5 0 0 0 1-1.13 10.58 10.58 0 0 0 .64-1.63c.15-.45.26.27.26-1.39H20.74a1.87 1.87 0 0 1-.87-.48c-.36-.26-.71-.39-1-.67a6.65 6.65 0 0 1-.92-.81 1.48 1.48 0 0 1-.4-1 4.56 4.56 0 0 1 1.08-3.19 7.57 7.57 0 0 1 2.61-1.8 17 17 0 0 1 3.2-1 21 21 0 0 0 2.86-.83c.41-.15 1.16-.46 2.21-.93s2.2-1 3.38-1.56 2.31-1.07 3.34-1.59a10.53 10.53 0 0 1 2.19-1.07H52a7.41 7.41 0 0 1 3.87 1A13.33 13.33 0 0 1 59 96a26.23 26.23 0 0 1 2.54 3.32 92.58 92.58 0 0 0 2.3 3.31 16.76 16.76 0 0 0 2.28 2.56 3.71 3.71 0 0 0 2.49 1 .81.81 0 0 0 .78-.4.89.89 0 0 1 .85-.4 3.84 3.84 0 0 1 1.52.32c.49.2 1 .45 1.53.71a16.29 16.29 0 0 0 1.53.7 3.82 3.82 0 0 0 1.56.32c1.4 0 2.78-.07 4.12-.2l4.11-.45c1.38-.18 2.76-.33 4.13-.48a37.08 37.08 0 0 1 4.12-.24 66.38 66.38 0 0 1 7.32.4 39.59 39.59 0 0 1 7.25 1.58c1.66.57 3.34 1.23 5 2s3.41 1.48 5.13 2.18a44.78 44.78 0 0 0 5.24 1.76 21.16 21.16 0 0 0 5.45.7h1.26c.64 0 1.07-.07 1.33-.07q6.47-1.39 12.91-2.71c4.29-.86 8.58-1.65 12.86-2.29s8.61-1.17 13-1.57 8.73-.56 13.16-.56h3.34c1.81 0 3.66 0 5.52.11a42.49 42.49 0 0 1 5.07.93l36.51 7.27H245c-.8 0-1.85 1-3.14 1.37a19.06 19.06 0 0 1-4.11.18z"/></svg>